<mxfile host="app.diagrams.net" modified="2021-11-01T12:52:13.512Z" agent="5.0 (Windows NT 10.0; Win64; x64) AppleWebKit/537.36 (KHTML, like Gecko) Chrome/95.0.4638.54 Safari/537.36" etag="UYPJ25648UHLlYXB1nPk" version="15.6.3" type="github" pages="9">
  <diagram id="zO-wmthBfaSaKIWfd3TX" name="Page-1">
    <mxGraphModel dx="1422" dy="762" grid="0" gridSize="10" guides="1" tooltips="1" connect="1" arrows="1" fold="1" page="1" pageScale="1" pageWidth="827" pageHeight="1169" math="0" shadow="0">
      <root>
        <mxCell id="0" />
        <mxCell id="1" parent="0" />
        <mxCell id="Jqj2XJyk7M3wji6_acCP-2" value="" style="rounded=0;whiteSpace=wrap;html=1;" parent="1" vertex="1">
          <mxGeometry x="115" y="100" width="325" height="496" as="geometry" />
        </mxCell>
        <mxCell id="Jqj2XJyk7M3wji6_acCP-5" style="edgeStyle=orthogonalEdgeStyle;rounded=0;orthogonalLoop=1;jettySize=auto;html=1;exitX=0.5;exitY=1;exitDx=0;exitDy=0;" parent="1" source="Jqj2XJyk7M3wji6_acCP-3" target="Jqj2XJyk7M3wji6_acCP-4" edge="1">
          <mxGeometry relative="1" as="geometry" />
        </mxCell>
        <mxCell id="Jqj2XJyk7M3wji6_acCP-3" value="广告" style="rounded=1;whiteSpace=wrap;html=1;" parent="1" vertex="1">
          <mxGeometry x="374" y="333" width="48" height="46" as="geometry" />
        </mxCell>
        <mxCell id="Jqj2XJyk7M3wji6_acCP-4" value="1.关闭广告&lt;br&gt;2.主推广告&lt;br&gt;3.合作广告&lt;br&gt;4.举报违规" style="rounded=1;whiteSpace=wrap;html=1;" parent="1" vertex="1">
          <mxGeometry x="246" y="357" width="114" height="108" as="geometry" />
        </mxCell>
        <mxCell id="Jqj2XJyk7M3wji6_acCP-6" value="长按" style="text;html=1;strokeColor=none;fillColor=none;align=center;verticalAlign=middle;whiteSpace=wrap;rounded=0;" parent="1" vertex="1">
          <mxGeometry x="376" y="424" width="40" height="20" as="geometry" />
        </mxCell>
        <mxCell id="Jqj2XJyk7M3wji6_acCP-7" value="&lt;font style=&quot;font-size: 20px&quot;&gt;直播间&lt;/font&gt;" style="text;html=1;strokeColor=none;fillColor=none;align=center;verticalAlign=middle;whiteSpace=wrap;rounded=0;" parent="1" vertex="1">
          <mxGeometry x="219" y="121" width="117" height="20" as="geometry" />
        </mxCell>
      </root>
    </mxGraphModel>
  </diagram>
  <diagram id="-GfKRu56NArgQzw0DeVP" name="Page-2">
    <mxGraphModel dx="1422" dy="761" grid="0" gridSize="10" guides="1" tooltips="1" connect="1" arrows="1" fold="1" page="1" pageScale="1" pageWidth="827" pageHeight="1169" math="0" shadow="0">
      <root>
        <mxCell id="pWmbEWxsI1bxuFg2rMRo-0" />
        <mxCell id="pWmbEWxsI1bxuFg2rMRo-1" parent="pWmbEWxsI1bxuFg2rMRo-0" />
        <mxCell id="pWmbEWxsI1bxuFg2rMRo-2" value="" style="rounded=0;whiteSpace=wrap;html=1;" vertex="1" parent="pWmbEWxsI1bxuFg2rMRo-1">
          <mxGeometry x="58" y="88" width="322" height="503" as="geometry" />
        </mxCell>
        <mxCell id="pWmbEWxsI1bxuFg2rMRo-4" value="用户群体" style="text;html=1;strokeColor=none;fillColor=none;align=center;verticalAlign=middle;whiteSpace=wrap;rounded=0;" vertex="1" parent="pWmbEWxsI1bxuFg2rMRo-1">
          <mxGeometry x="82" y="149" width="69" height="20" as="geometry" />
        </mxCell>
        <mxCell id="pWmbEWxsI1bxuFg2rMRo-5" value="助推编辑页" style="text;html=1;strokeColor=none;fillColor=none;align=center;verticalAlign=middle;whiteSpace=wrap;rounded=0;" vertex="1" parent="pWmbEWxsI1bxuFg2rMRo-1">
          <mxGeometry x="188" y="105" width="84" height="20" as="geometry" />
        </mxCell>
        <mxCell id="pWmbEWxsI1bxuFg2rMRo-6" value="曝光量" style="text;html=1;strokeColor=none;fillColor=none;align=center;verticalAlign=middle;whiteSpace=wrap;rounded=0;" vertex="1" parent="pWmbEWxsI1bxuFg2rMRo-1">
          <mxGeometry x="85" y="199" width="69" height="20" as="geometry" />
        </mxCell>
        <mxCell id="pWmbEWxsI1bxuFg2rMRo-7" value="点击量" style="text;html=1;strokeColor=none;fillColor=none;align=center;verticalAlign=middle;whiteSpace=wrap;rounded=0;" vertex="1" parent="pWmbEWxsI1bxuFg2rMRo-1">
          <mxGeometry x="82" y="244" width="69" height="20" as="geometry" />
        </mxCell>
        <mxCell id="pWmbEWxsI1bxuFg2rMRo-8" value="广告时长" style="text;html=1;strokeColor=none;fillColor=none;align=center;verticalAlign=middle;whiteSpace=wrap;rounded=0;" vertex="1" parent="pWmbEWxsI1bxuFg2rMRo-1">
          <mxGeometry x="82" y="297" width="69" height="20" as="geometry" />
        </mxCell>
        <mxCell id="pWmbEWxsI1bxuFg2rMRo-9" value="目标级别" style="text;html=1;strokeColor=none;fillColor=none;align=center;verticalAlign=middle;whiteSpace=wrap;rounded=0;" vertex="1" parent="pWmbEWxsI1bxuFg2rMRo-1">
          <mxGeometry x="77" y="350" width="69" height="20" as="geometry" />
        </mxCell>
        <mxCell id="2dCPsvVQ7waoRho5ZU_F-1" style="edgeStyle=orthogonalEdgeStyle;rounded=0;orthogonalLoop=1;jettySize=auto;html=1;exitX=1;exitY=0.5;exitDx=0;exitDy=0;entryX=0;entryY=0.5;entryDx=0;entryDy=0;" edge="1" parent="pWmbEWxsI1bxuFg2rMRo-1" source="pWmbEWxsI1bxuFg2rMRo-11" target="2dCPsvVQ7waoRho5ZU_F-0">
          <mxGeometry relative="1" as="geometry" />
        </mxCell>
        <mxCell id="pWmbEWxsI1bxuFg2rMRo-11" value="确认" style="rounded=1;whiteSpace=wrap;html=1;" vertex="1" parent="pWmbEWxsI1bxuFg2rMRo-1">
          <mxGeometry x="272" y="529" width="85" height="35" as="geometry" />
        </mxCell>
        <mxCell id="pWmbEWxsI1bxuFg2rMRo-12" value="服务器" style="rounded=1;whiteSpace=wrap;html=1;" vertex="1" parent="pWmbEWxsI1bxuFg2rMRo-1">
          <mxGeometry x="594" y="337" width="85" height="35" as="geometry" />
        </mxCell>
        <mxCell id="pWmbEWxsI1bxuFg2rMRo-15" style="edgeStyle=orthogonalEdgeStyle;rounded=0;orthogonalLoop=1;jettySize=auto;html=1;exitX=0;exitY=0.5;exitDx=0;exitDy=0;" edge="1" parent="pWmbEWxsI1bxuFg2rMRo-1" source="pWmbEWxsI1bxuFg2rMRo-13" target="pWmbEWxsI1bxuFg2rMRo-12">
          <mxGeometry relative="1" as="geometry" />
        </mxCell>
        <mxCell id="pWmbEWxsI1bxuFg2rMRo-13" value="人工审核" style="rounded=1;whiteSpace=wrap;html=1;" vertex="1" parent="pWmbEWxsI1bxuFg2rMRo-1">
          <mxGeometry x="735" y="337" width="85" height="35" as="geometry" />
        </mxCell>
        <mxCell id="pWmbEWxsI1bxuFg2rMRo-16" value="预计费用" style="text;html=1;strokeColor=none;fillColor=none;align=center;verticalAlign=middle;whiteSpace=wrap;rounded=0;" vertex="1" parent="pWmbEWxsI1bxuFg2rMRo-1">
          <mxGeometry x="192" y="460" width="76" height="20" as="geometry" />
        </mxCell>
        <mxCell id="2dCPsvVQ7waoRho5ZU_F-3" style="edgeStyle=orthogonalEdgeStyle;rounded=0;orthogonalLoop=1;jettySize=auto;html=1;exitX=1;exitY=0.5;exitDx=0;exitDy=0;" edge="1" parent="pWmbEWxsI1bxuFg2rMRo-1" source="2dCPsvVQ7waoRho5ZU_F-0" target="pWmbEWxsI1bxuFg2rMRo-12">
          <mxGeometry relative="1" as="geometry" />
        </mxCell>
        <mxCell id="2dCPsvVQ7waoRho5ZU_F-0" value="广告编辑页" style="rounded=1;whiteSpace=wrap;html=1;" vertex="1" parent="pWmbEWxsI1bxuFg2rMRo-1">
          <mxGeometry x="453" y="337" width="85" height="35" as="geometry" />
        </mxCell>
      </root>
    </mxGraphModel>
  </diagram>
  <diagram id="wC0SMyC7d70TKO7Kje5C" name="Page-3">
    <mxGraphModel dx="1422" dy="761" grid="0" gridSize="10" guides="1" tooltips="1" connect="1" arrows="1" fold="1" page="1" pageScale="1" pageWidth="827" pageHeight="1169" math="0" shadow="0">
      <root>
        <mxCell id="zJaolgqxzUL1QfpMmghw-0" />
        <mxCell id="zJaolgqxzUL1QfpMmghw-1" parent="zJaolgqxzUL1QfpMmghw-0" />
        <mxCell id="FzVu_cx5iRMLNUsURMGs-0" value="" style="rounded=0;whiteSpace=wrap;html=1;" vertex="1" parent="zJaolgqxzUL1QfpMmghw-1">
          <mxGeometry x="157" y="90" width="322" height="503" as="geometry" />
        </mxCell>
        <mxCell id="FzVu_cx5iRMLNUsURMGs-2" value="广告编辑页" style="text;html=1;strokeColor=none;fillColor=none;align=center;verticalAlign=middle;whiteSpace=wrap;rounded=0;" vertex="1" parent="zJaolgqxzUL1QfpMmghw-1">
          <mxGeometry x="287" y="107" width="84" height="20" as="geometry" />
        </mxCell>
        <mxCell id="FzVu_cx5iRMLNUsURMGs-7" style="edgeStyle=orthogonalEdgeStyle;rounded=0;orthogonalLoop=1;jettySize=auto;html=1;exitX=1;exitY=0.5;exitDx=0;exitDy=0;entryX=0;entryY=0.5;entryDx=0;entryDy=0;" edge="1" parent="zJaolgqxzUL1QfpMmghw-1" source="FzVu_cx5iRMLNUsURMGs-8" target="FzVu_cx5iRMLNUsURMGs-9">
          <mxGeometry relative="1" as="geometry" />
        </mxCell>
        <mxCell id="FzVu_cx5iRMLNUsURMGs-8" value="提交" style="rounded=1;whiteSpace=wrap;html=1;" vertex="1" parent="zJaolgqxzUL1QfpMmghw-1">
          <mxGeometry x="371" y="531" width="85" height="35" as="geometry" />
        </mxCell>
        <mxCell id="FzVu_cx5iRMLNUsURMGs-9" value="服务器" style="rounded=1;whiteSpace=wrap;html=1;" vertex="1" parent="zJaolgqxzUL1QfpMmghw-1">
          <mxGeometry x="590" y="333" width="85" height="35" as="geometry" />
        </mxCell>
        <mxCell id="FzVu_cx5iRMLNUsURMGs-10" style="edgeStyle=orthogonalEdgeStyle;rounded=0;orthogonalLoop=1;jettySize=auto;html=1;exitX=0;exitY=0.5;exitDx=0;exitDy=0;" edge="1" parent="zJaolgqxzUL1QfpMmghw-1" source="FzVu_cx5iRMLNUsURMGs-11" target="FzVu_cx5iRMLNUsURMGs-9">
          <mxGeometry relative="1" as="geometry" />
        </mxCell>
        <mxCell id="FzVu_cx5iRMLNUsURMGs-11" value="人工审核" style="rounded=1;whiteSpace=wrap;html=1;" vertex="1" parent="zJaolgqxzUL1QfpMmghw-1">
          <mxGeometry x="705" y="333" width="85" height="35" as="geometry" />
        </mxCell>
        <mxCell id="nwUGSKCBcwHNbHD_RWMA-0" value="显示图标" style="text;html=1;strokeColor=none;fillColor=none;align=center;verticalAlign=middle;whiteSpace=wrap;rounded=0;" vertex="1" parent="zJaolgqxzUL1QfpMmghw-1">
          <mxGeometry x="196" y="141" width="60" height="20" as="geometry" />
        </mxCell>
        <mxCell id="nwUGSKCBcwHNbHD_RWMA-1" value="滚动文字" style="text;html=1;strokeColor=none;fillColor=none;align=center;verticalAlign=middle;whiteSpace=wrap;rounded=0;" vertex="1" parent="zJaolgqxzUL1QfpMmghw-1">
          <mxGeometry x="282" y="141" width="60" height="20" as="geometry" />
        </mxCell>
        <mxCell id="nwUGSKCBcwHNbHD_RWMA-2" value="PPT效果" style="text;html=1;strokeColor=none;fillColor=none;align=center;verticalAlign=middle;whiteSpace=wrap;rounded=0;" vertex="1" parent="zJaolgqxzUL1QfpMmghw-1">
          <mxGeometry x="383.5" y="141" width="60" height="20" as="geometry" />
        </mxCell>
        <mxCell id="nwUGSKCBcwHNbHD_RWMA-3" value="预览页面" style="text;html=1;strokeColor=none;fillColor=none;align=center;verticalAlign=middle;whiteSpace=wrap;rounded=0;" vertex="1" parent="zJaolgqxzUL1QfpMmghw-1">
          <mxGeometry x="202" y="190" width="59" height="18" as="geometry" />
        </mxCell>
        <mxCell id="nwUGSKCBcwHNbHD_RWMA-5" value="" style="rounded=0;whiteSpace=wrap;html=1;" vertex="1" parent="zJaolgqxzUL1QfpMmghw-1">
          <mxGeometry x="205" y="237" width="237" height="281" as="geometry" />
        </mxCell>
        <mxCell id="nwUGSKCBcwHNbHD_RWMA-7" value="主播头像" style="text;html=1;strokeColor=none;fillColor=none;align=center;verticalAlign=middle;whiteSpace=wrap;rounded=0;" vertex="1" parent="zJaolgqxzUL1QfpMmghw-1">
          <mxGeometry x="227" y="263" width="50" height="20" as="geometry" />
        </mxCell>
        <mxCell id="nwUGSKCBcwHNbHD_RWMA-8" value="主播信息" style="text;html=1;strokeColor=none;fillColor=none;align=center;verticalAlign=middle;whiteSpace=wrap;rounded=0;" vertex="1" parent="zJaolgqxzUL1QfpMmghw-1">
          <mxGeometry x="304" y="263" width="53" height="20" as="geometry" />
        </mxCell>
        <mxCell id="nwUGSKCBcwHNbHD_RWMA-9" value="背景ppt图" style="text;html=1;strokeColor=none;fillColor=none;align=center;verticalAlign=middle;whiteSpace=wrap;rounded=0;" vertex="1" parent="zJaolgqxzUL1QfpMmghw-1">
          <mxGeometry x="285.5" y="381" width="76" height="20" as="geometry" />
        </mxCell>
        <mxCell id="nwUGSKCBcwHNbHD_RWMA-10" value="个性介绍" style="text;html=1;strokeColor=none;fillColor=none;align=center;verticalAlign=middle;whiteSpace=wrap;rounded=0;" vertex="1" parent="zJaolgqxzUL1QfpMmghw-1">
          <mxGeometry x="213" y="475" width="85" height="20" as="geometry" />
        </mxCell>
        <mxCell id="gU27QxzHeNm5bdpcb8AS-2" style="edgeStyle=orthogonalEdgeStyle;rounded=0;orthogonalLoop=1;jettySize=auto;html=1;exitX=1;exitY=0.5;exitDx=0;exitDy=0;" edge="1" parent="zJaolgqxzUL1QfpMmghw-1" source="gU27QxzHeNm5bdpcb8AS-1" target="FzVu_cx5iRMLNUsURMGs-0">
          <mxGeometry relative="1" as="geometry" />
        </mxCell>
        <mxCell id="gU27QxzHeNm5bdpcb8AS-1" value="助推编辑页" style="rounded=1;whiteSpace=wrap;html=1;" vertex="1" parent="zJaolgqxzUL1QfpMmghw-1">
          <mxGeometry x="10" y="333" width="85" height="35" as="geometry" />
        </mxCell>
      </root>
    </mxGraphModel>
  </diagram>
  <diagram id="4GTUU7j5SuDy5gNLRTHH" name="Page-4">
    <mxGraphModel dx="1422" dy="761" grid="0" gridSize="10" guides="1" tooltips="1" connect="1" arrows="1" fold="1" page="1" pageScale="1" pageWidth="827" pageHeight="1169" math="0" shadow="0">
      <root>
        <mxCell id="La_jYl-na2dnXEz4RWa4-0" />
        <mxCell id="La_jYl-na2dnXEz4RWa4-1" parent="La_jYl-na2dnXEz4RWa4-0" />
        <mxCell id="KBfZtkyayCNavMnQStwA-0" value="" style="rounded=0;whiteSpace=wrap;html=1;" vertex="1" parent="La_jYl-na2dnXEz4RWa4-1">
          <mxGeometry x="58" y="88" width="322" height="503" as="geometry" />
        </mxCell>
        <mxCell id="KBfZtkyayCNavMnQStwA-1" value="用户群体" style="text;html=1;strokeColor=none;fillColor=none;align=center;verticalAlign=middle;whiteSpace=wrap;rounded=0;" vertex="1" parent="La_jYl-na2dnXEz4RWa4-1">
          <mxGeometry x="82" y="172" width="69" height="20" as="geometry" />
        </mxCell>
        <mxCell id="KBfZtkyayCNavMnQStwA-2" value="广告合作" style="text;html=1;strokeColor=none;fillColor=none;align=center;verticalAlign=middle;whiteSpace=wrap;rounded=0;" vertex="1" parent="La_jYl-na2dnXEz4RWa4-1">
          <mxGeometry x="188" y="105" width="84" height="20" as="geometry" />
        </mxCell>
        <mxCell id="KBfZtkyayCNavMnQStwA-3" value="曝光量" style="text;html=1;strokeColor=none;fillColor=none;align=center;verticalAlign=middle;whiteSpace=wrap;rounded=0;" vertex="1" parent="La_jYl-na2dnXEz4RWa4-1">
          <mxGeometry x="79" y="213" width="69" height="20" as="geometry" />
        </mxCell>
        <mxCell id="KBfZtkyayCNavMnQStwA-4" value="点击量" style="text;html=1;strokeColor=none;fillColor=none;align=center;verticalAlign=middle;whiteSpace=wrap;rounded=0;" vertex="1" parent="La_jYl-na2dnXEz4RWa4-1">
          <mxGeometry x="82" y="255" width="69" height="20" as="geometry" />
        </mxCell>
        <mxCell id="KBfZtkyayCNavMnQStwA-5" value="广告时长" style="text;html=1;strokeColor=none;fillColor=none;align=center;verticalAlign=middle;whiteSpace=wrap;rounded=0;" vertex="1" parent="La_jYl-na2dnXEz4RWa4-1">
          <mxGeometry x="82" y="307" width="69" height="20" as="geometry" />
        </mxCell>
        <mxCell id="KBfZtkyayCNavMnQStwA-6" value="目标级别" style="text;html=1;strokeColor=none;fillColor=none;align=center;verticalAlign=middle;whiteSpace=wrap;rounded=0;" vertex="1" parent="La_jYl-na2dnXEz4RWa4-1">
          <mxGeometry x="79" y="347" width="69" height="20" as="geometry" />
        </mxCell>
        <mxCell id="KBfZtkyayCNavMnQStwA-19" style="edgeStyle=orthogonalEdgeStyle;rounded=0;orthogonalLoop=1;jettySize=auto;html=1;exitX=1;exitY=0.5;exitDx=0;exitDy=0;entryX=0;entryY=0.5;entryDx=0;entryDy=0;" edge="1" parent="La_jYl-na2dnXEz4RWa4-1" source="KBfZtkyayCNavMnQStwA-8" target="KBfZtkyayCNavMnQStwA-9">
          <mxGeometry relative="1" as="geometry" />
        </mxCell>
        <mxCell id="KBfZtkyayCNavMnQStwA-8" value="确认" style="rounded=1;whiteSpace=wrap;html=1;" vertex="1" parent="La_jYl-na2dnXEz4RWa4-1">
          <mxGeometry x="272" y="529" width="85" height="35" as="geometry" />
        </mxCell>
        <mxCell id="KBfZtkyayCNavMnQStwA-21" style="edgeStyle=orthogonalEdgeStyle;rounded=0;orthogonalLoop=1;jettySize=auto;html=1;exitX=0.5;exitY=1;exitDx=0;exitDy=0;" edge="1" parent="La_jYl-na2dnXEz4RWa4-1" source="KBfZtkyayCNavMnQStwA-9" target="KBfZtkyayCNavMnQStwA-20">
          <mxGeometry relative="1" as="geometry" />
        </mxCell>
        <mxCell id="KBfZtkyayCNavMnQStwA-9" value="服务器" style="rounded=1;whiteSpace=wrap;html=1;" vertex="1" parent="La_jYl-na2dnXEz4RWa4-1">
          <mxGeometry x="515" y="337" width="85" height="35" as="geometry" />
        </mxCell>
        <mxCell id="KBfZtkyayCNavMnQStwA-10" style="edgeStyle=orthogonalEdgeStyle;rounded=0;orthogonalLoop=1;jettySize=auto;html=1;exitX=0;exitY=0.5;exitDx=0;exitDy=0;" edge="1" parent="La_jYl-na2dnXEz4RWa4-1" source="KBfZtkyayCNavMnQStwA-11" target="KBfZtkyayCNavMnQStwA-9">
          <mxGeometry relative="1" as="geometry" />
        </mxCell>
        <mxCell id="KBfZtkyayCNavMnQStwA-11" value="人工审核" style="rounded=1;whiteSpace=wrap;html=1;" vertex="1" parent="La_jYl-na2dnXEz4RWa4-1">
          <mxGeometry x="671" y="337" width="85" height="35" as="geometry" />
        </mxCell>
        <mxCell id="KBfZtkyayCNavMnQStwA-12" value="预计费用" style="text;html=1;strokeColor=none;fillColor=none;align=center;verticalAlign=middle;whiteSpace=wrap;rounded=0;" vertex="1" parent="La_jYl-na2dnXEz4RWa4-1">
          <mxGeometry x="192" y="460" width="76" height="20" as="geometry" />
        </mxCell>
        <mxCell id="KBfZtkyayCNavMnQStwA-15" value="合作地址" style="text;html=1;strokeColor=none;fillColor=none;align=center;verticalAlign=middle;whiteSpace=wrap;rounded=0;" vertex="1" parent="La_jYl-na2dnXEz4RWa4-1">
          <mxGeometry x="82" y="145" width="69" height="20" as="geometry" />
        </mxCell>
        <mxCell id="KBfZtkyayCNavMnQStwA-18" value="预审核" style="rounded=1;whiteSpace=wrap;html=1;" vertex="1" parent="La_jYl-na2dnXEz4RWa4-1">
          <mxGeometry x="317" y="141" width="50" height="31" as="geometry" />
        </mxCell>
        <mxCell id="KBfZtkyayCNavMnQStwA-20" value="客户端" style="rounded=1;whiteSpace=wrap;html=1;" vertex="1" parent="La_jYl-na2dnXEz4RWa4-1">
          <mxGeometry x="515" y="468" width="85" height="35" as="geometry" />
        </mxCell>
      </root>
    </mxGraphModel>
  </diagram>
  <diagram id="SqFa5kxJneh1Avuoi11e" name="Page-5">
    <mxGraphModel dx="1422" dy="761" grid="0" gridSize="10" guides="1" tooltips="1" connect="1" arrows="1" fold="1" page="1" pageScale="1" pageWidth="827" pageHeight="1169" math="0" shadow="0">
      <root>
        <mxCell id="lTjm3hlR4J4XtvHqPH4w-0" />
        <mxCell id="lTjm3hlR4J4XtvHqPH4w-1" parent="lTjm3hlR4J4XtvHqPH4w-0" />
        <mxCell id="SChNi5rP34GUZ8onUG0v-0" value="" style="rounded=0;whiteSpace=wrap;html=1;" vertex="1" parent="lTjm3hlR4J4XtvHqPH4w-1">
          <mxGeometry x="58" y="88" width="322" height="503" as="geometry" />
        </mxCell>
        <mxCell id="SChNi5rP34GUZ8onUG0v-1" value="违规类型" style="text;html=1;strokeColor=none;fillColor=none;align=center;verticalAlign=middle;whiteSpace=wrap;rounded=0;" vertex="1" parent="lTjm3hlR4J4XtvHqPH4w-1">
          <mxGeometry x="82" y="172" width="69" height="20" as="geometry" />
        </mxCell>
        <mxCell id="SChNi5rP34GUZ8onUG0v-2" value="举报违规" style="text;html=1;strokeColor=none;fillColor=none;align=center;verticalAlign=middle;whiteSpace=wrap;rounded=0;" vertex="1" parent="lTjm3hlR4J4XtvHqPH4w-1">
          <mxGeometry x="188" y="105" width="84" height="20" as="geometry" />
        </mxCell>
        <mxCell id="SChNi5rP34GUZ8onUG0v-3" value="举报详情" style="text;html=1;strokeColor=none;fillColor=none;align=center;verticalAlign=middle;whiteSpace=wrap;rounded=0;" vertex="1" parent="lTjm3hlR4J4XtvHqPH4w-1">
          <mxGeometry x="85" y="217" width="69" height="20" as="geometry" />
        </mxCell>
        <mxCell id="SChNi5rP34GUZ8onUG0v-7" style="edgeStyle=orthogonalEdgeStyle;rounded=0;orthogonalLoop=1;jettySize=auto;html=1;exitX=1;exitY=0.5;exitDx=0;exitDy=0;entryX=0;entryY=0.5;entryDx=0;entryDy=0;" edge="1" parent="lTjm3hlR4J4XtvHqPH4w-1" source="SChNi5rP34GUZ8onUG0v-8" target="SChNi5rP34GUZ8onUG0v-10">
          <mxGeometry relative="1" as="geometry" />
        </mxCell>
        <mxCell id="SChNi5rP34GUZ8onUG0v-8" value="确认" style="rounded=1;whiteSpace=wrap;html=1;" vertex="1" parent="lTjm3hlR4J4XtvHqPH4w-1">
          <mxGeometry x="272" y="529" width="85" height="35" as="geometry" />
        </mxCell>
        <mxCell id="SChNi5rP34GUZ8onUG0v-10" value="服务器" style="rounded=1;whiteSpace=wrap;html=1;" vertex="1" parent="lTjm3hlR4J4XtvHqPH4w-1">
          <mxGeometry x="515" y="337" width="85" height="35" as="geometry" />
        </mxCell>
        <mxCell id="SChNi5rP34GUZ8onUG0v-11" style="edgeStyle=orthogonalEdgeStyle;rounded=0;orthogonalLoop=1;jettySize=auto;html=1;exitX=0;exitY=0.5;exitDx=0;exitDy=0;" edge="1" parent="lTjm3hlR4J4XtvHqPH4w-1" source="SChNi5rP34GUZ8onUG0v-12" target="SChNi5rP34GUZ8onUG0v-10">
          <mxGeometry relative="1" as="geometry" />
        </mxCell>
        <mxCell id="SChNi5rP34GUZ8onUG0v-12" value="人工审核" style="rounded=1;whiteSpace=wrap;html=1;" vertex="1" parent="lTjm3hlR4J4XtvHqPH4w-1">
          <mxGeometry x="671" y="337" width="85" height="35" as="geometry" />
        </mxCell>
      </root>
    </mxGraphModel>
  </diagram>
  <diagram id="GgIx2mdeS02s6z8ToBvQ" name="Page-6">
    <mxGraphModel dx="1422" dy="761" grid="0" gridSize="10" guides="1" tooltips="1" connect="1" arrows="1" fold="1" page="1" pageScale="1" pageWidth="827" pageHeight="1169" math="0" shadow="0">
      <root>
        <mxCell id="kY5QFJgGn-29k4Nx0vmf-0" />
        <mxCell id="kY5QFJgGn-29k4Nx0vmf-1" parent="kY5QFJgGn-29k4Nx0vmf-0" />
        <mxCell id="HNiRWSfvY-knhK3nLCRj-0" value="" style="rounded=0;whiteSpace=wrap;html=1;" vertex="1" parent="kY5QFJgGn-29k4Nx0vmf-1">
          <mxGeometry x="365" y="33" width="322" height="503" as="geometry" />
        </mxCell>
        <mxCell id="HNiRWSfvY-knhK3nLCRj-12" style="edgeStyle=orthogonalEdgeStyle;rounded=0;orthogonalLoop=1;jettySize=auto;html=1;exitX=1;exitY=0.5;exitDx=0;exitDy=0;entryX=0;entryY=0.5;entryDx=0;entryDy=0;" edge="1" parent="kY5QFJgGn-29k4Nx0vmf-1" source="kY5QFJgGn-29k4Nx0vmf-2" target="HNiRWSfvY-knhK3nLCRj-1">
          <mxGeometry relative="1" as="geometry" />
        </mxCell>
        <mxCell id="kY5QFJgGn-29k4Nx0vmf-2" value="付费人群" style="rounded=1;whiteSpace=wrap;html=1;" vertex="1" parent="kY5QFJgGn-29k4Nx0vmf-1">
          <mxGeometry x="125" y="106" width="120" height="60" as="geometry" />
        </mxCell>
        <mxCell id="HNiRWSfvY-knhK3nLCRj-11" style="edgeStyle=orthogonalEdgeStyle;rounded=0;orthogonalLoop=1;jettySize=auto;html=1;exitX=1;exitY=0.5;exitDx=0;exitDy=0;entryX=0;entryY=0.5;entryDx=0;entryDy=0;" edge="1" parent="kY5QFJgGn-29k4Nx0vmf-1" source="kY5QFJgGn-29k4Nx0vmf-3" target="HNiRWSfvY-knhK3nLCRj-1">
          <mxGeometry relative="1" as="geometry" />
        </mxCell>
        <mxCell id="kY5QFJgGn-29k4Nx0vmf-3" value="观看人群" style="rounded=1;whiteSpace=wrap;html=1;" vertex="1" parent="kY5QFJgGn-29k4Nx0vmf-1">
          <mxGeometry x="125" y="252" width="120" height="60" as="geometry" />
        </mxCell>
        <mxCell id="HNiRWSfvY-knhK3nLCRj-1" value="用户群体" style="text;html=1;strokeColor=none;fillColor=none;align=center;verticalAlign=middle;whiteSpace=wrap;rounded=0;" vertex="1" parent="kY5QFJgGn-29k4Nx0vmf-1">
          <mxGeometry x="389" y="94" width="69" height="20" as="geometry" />
        </mxCell>
        <mxCell id="HNiRWSfvY-knhK3nLCRj-2" value="助推编辑页" style="text;html=1;strokeColor=none;fillColor=none;align=center;verticalAlign=middle;whiteSpace=wrap;rounded=0;" vertex="1" parent="kY5QFJgGn-29k4Nx0vmf-1">
          <mxGeometry x="495" y="50" width="84" height="20" as="geometry" />
        </mxCell>
        <mxCell id="HNiRWSfvY-knhK3nLCRj-3" value="曝光量" style="text;html=1;strokeColor=none;fillColor=none;align=center;verticalAlign=middle;whiteSpace=wrap;rounded=0;" vertex="1" parent="kY5QFJgGn-29k4Nx0vmf-1">
          <mxGeometry x="392" y="144" width="69" height="20" as="geometry" />
        </mxCell>
        <mxCell id="HNiRWSfvY-knhK3nLCRj-4" value="点击量" style="text;html=1;strokeColor=none;fillColor=none;align=center;verticalAlign=middle;whiteSpace=wrap;rounded=0;" vertex="1" parent="kY5QFJgGn-29k4Nx0vmf-1">
          <mxGeometry x="389" y="189" width="69" height="20" as="geometry" />
        </mxCell>
        <mxCell id="HNiRWSfvY-knhK3nLCRj-5" value="广告时长" style="text;html=1;strokeColor=none;fillColor=none;align=center;verticalAlign=middle;whiteSpace=wrap;rounded=0;" vertex="1" parent="kY5QFJgGn-29k4Nx0vmf-1">
          <mxGeometry x="389" y="242" width="69" height="20" as="geometry" />
        </mxCell>
        <mxCell id="HNiRWSfvY-knhK3nLCRj-6" value="目标级别" style="text;html=1;strokeColor=none;fillColor=none;align=center;verticalAlign=middle;whiteSpace=wrap;rounded=0;" vertex="1" parent="kY5QFJgGn-29k4Nx0vmf-1">
          <mxGeometry x="384" y="295" width="69" height="20" as="geometry" />
        </mxCell>
        <mxCell id="HNiRWSfvY-knhK3nLCRj-7" value="确认" style="rounded=1;whiteSpace=wrap;html=1;" vertex="1" parent="kY5QFJgGn-29k4Nx0vmf-1">
          <mxGeometry x="579" y="474" width="85" height="35" as="geometry" />
        </mxCell>
        <mxCell id="HNiRWSfvY-knhK3nLCRj-8" value="预计费用" style="text;html=1;strokeColor=none;fillColor=none;align=center;verticalAlign=middle;whiteSpace=wrap;rounded=0;" vertex="1" parent="kY5QFJgGn-29k4Nx0vmf-1">
          <mxGeometry x="499" y="405" width="76" height="20" as="geometry" />
        </mxCell>
        <mxCell id="HNiRWSfvY-knhK3nLCRj-15" style="edgeStyle=orthogonalEdgeStyle;rounded=0;orthogonalLoop=1;jettySize=auto;html=1;exitX=0.5;exitY=0;exitDx=0;exitDy=0;entryX=0;entryY=0.5;entryDx=0;entryDy=0;" edge="1" parent="kY5QFJgGn-29k4Nx0vmf-1" source="HNiRWSfvY-knhK3nLCRj-14" target="kY5QFJgGn-29k4Nx0vmf-3">
          <mxGeometry relative="1" as="geometry">
            <Array as="points">
              <mxPoint x="194" y="436" />
              <mxPoint x="72" y="436" />
              <mxPoint x="72" y="282" />
            </Array>
          </mxGeometry>
        </mxCell>
        <mxCell id="HNiRWSfvY-knhK3nLCRj-16" style="edgeStyle=orthogonalEdgeStyle;rounded=0;orthogonalLoop=1;jettySize=auto;html=1;exitX=0.5;exitY=0;exitDx=0;exitDy=0;entryX=0;entryY=0.5;entryDx=0;entryDy=0;" edge="1" parent="kY5QFJgGn-29k4Nx0vmf-1" source="HNiRWSfvY-knhK3nLCRj-14" target="kY5QFJgGn-29k4Nx0vmf-2">
          <mxGeometry relative="1" as="geometry">
            <Array as="points">
              <mxPoint x="194" y="438" />
              <mxPoint x="72" y="438" />
              <mxPoint x="72" y="136" />
            </Array>
          </mxGeometry>
        </mxCell>
        <mxCell id="HNiRWSfvY-knhK3nLCRj-14" value="服务器" style="rounded=1;whiteSpace=wrap;html=1;" vertex="1" parent="kY5QFJgGn-29k4Nx0vmf-1">
          <mxGeometry x="134" y="536" width="120" height="60" as="geometry" />
        </mxCell>
        <mxCell id="HNiRWSfvY-knhK3nLCRj-17" value="模型推理" style="text;html=1;strokeColor=none;fillColor=none;align=center;verticalAlign=middle;whiteSpace=wrap;rounded=0;" vertex="1" parent="kY5QFJgGn-29k4Nx0vmf-1">
          <mxGeometry x="125" y="411" width="69" height="20" as="geometry" />
        </mxCell>
      </root>
    </mxGraphModel>
  </diagram>
  <diagram id="wJY3OsH0OdpTgqS4qnYY" name="Page-7">
    <mxGraphModel dx="1822" dy="762" grid="0" gridSize="10" guides="1" tooltips="1" connect="1" arrows="1" fold="1" page="0" pageScale="1" pageWidth="1169" pageHeight="827" math="0" shadow="0">
      <root>
        <mxCell id="0-VS3swfHML5EysyRKKE-0" />
        <mxCell id="0-VS3swfHML5EysyRKKE-1" parent="0-VS3swfHML5EysyRKKE-0" />
        <mxCell id="upkcNttZu5IaTP0HQgOT-4" style="edgeStyle=orthogonalEdgeStyle;rounded=0;orthogonalLoop=1;jettySize=auto;html=1;exitX=0.5;exitY=1;exitDx=0;exitDy=0;" parent="0-VS3swfHML5EysyRKKE-1" source="0-VS3swfHML5EysyRKKE-2" target="upkcNttZu5IaTP0HQgOT-0" edge="1">
          <mxGeometry relative="1" as="geometry" />
        </mxCell>
        <mxCell id="upkcNttZu5IaTP0HQgOT-5" style="edgeStyle=orthogonalEdgeStyle;rounded=0;orthogonalLoop=1;jettySize=auto;html=1;exitX=0.5;exitY=1;exitDx=0;exitDy=0;" parent="0-VS3swfHML5EysyRKKE-1" source="0-VS3swfHML5EysyRKKE-2" target="upkcNttZu5IaTP0HQgOT-1" edge="1">
          <mxGeometry relative="1" as="geometry" />
        </mxCell>
        <mxCell id="upkcNttZu5IaTP0HQgOT-6" style="edgeStyle=orthogonalEdgeStyle;rounded=0;orthogonalLoop=1;jettySize=auto;html=1;exitX=0.5;exitY=1;exitDx=0;exitDy=0;" parent="0-VS3swfHML5EysyRKKE-1" source="0-VS3swfHML5EysyRKKE-2" target="upkcNttZu5IaTP0HQgOT-2" edge="1">
          <mxGeometry relative="1" as="geometry" />
        </mxCell>
        <mxCell id="upkcNttZu5IaTP0HQgOT-7" style="edgeStyle=orthogonalEdgeStyle;rounded=0;orthogonalLoop=1;jettySize=auto;html=1;exitX=0.5;exitY=1;exitDx=0;exitDy=0;" parent="0-VS3swfHML5EysyRKKE-1" source="0-VS3swfHML5EysyRKKE-2" target="upkcNttZu5IaTP0HQgOT-3" edge="1">
          <mxGeometry relative="1" as="geometry" />
        </mxCell>
        <mxCell id="upkcNttZu5IaTP0HQgOT-14" style="edgeStyle=orthogonalEdgeStyle;rounded=0;orthogonalLoop=1;jettySize=auto;html=1;exitX=0.5;exitY=1;exitDx=0;exitDy=0;entryX=0.5;entryY=0;entryDx=0;entryDy=0;" parent="0-VS3swfHML5EysyRKKE-1" source="0-VS3swfHML5EysyRKKE-2" target="upkcNttZu5IaTP0HQgOT-13" edge="1">
          <mxGeometry relative="1" as="geometry" />
        </mxCell>
        <mxCell id="0-VS3swfHML5EysyRKKE-2" value="主播端&lt;br&gt;" style="rounded=1;whiteSpace=wrap;html=1;" parent="0-VS3swfHML5EysyRKKE-1" vertex="1">
          <mxGeometry x="423" y="15" width="180" height="83" as="geometry" />
        </mxCell>
        <mxCell id="upkcNttZu5IaTP0HQgOT-0" value="关闭自身广告" style="rounded=1;whiteSpace=wrap;html=1;" parent="0-VS3swfHML5EysyRKKE-1" vertex="1">
          <mxGeometry x="136" y="172" width="118" height="72" as="geometry" />
        </mxCell>
        <mxCell id="upkcNttZu5IaTP0HQgOT-9" style="edgeStyle=orthogonalEdgeStyle;rounded=0;orthogonalLoop=1;jettySize=auto;html=1;exitX=0.5;exitY=1;exitDx=0;exitDy=0;entryX=0.5;entryY=0;entryDx=0;entryDy=0;" parent="0-VS3swfHML5EysyRKKE-1" source="upkcNttZu5IaTP0HQgOT-1" target="upkcNttZu5IaTP0HQgOT-8" edge="1">
          <mxGeometry relative="1" as="geometry" />
        </mxCell>
        <mxCell id="upkcNttZu5IaTP0HQgOT-1" value="关闭直播间内所有广告" style="rounded=1;whiteSpace=wrap;html=1;" parent="0-VS3swfHML5EysyRKKE-1" vertex="1">
          <mxGeometry x="366" y="172" width="118" height="72" as="geometry" />
        </mxCell>
        <mxCell id="RdCEnAS_4I0mAr-Uz0lv-1" style="edgeStyle=orthogonalEdgeStyle;rounded=0;orthogonalLoop=1;jettySize=auto;html=1;exitX=0.5;exitY=1;exitDx=0;exitDy=0;" edge="1" parent="0-VS3swfHML5EysyRKKE-1" source="upkcNttZu5IaTP0HQgOT-2" target="RdCEnAS_4I0mAr-Uz0lv-0">
          <mxGeometry relative="1" as="geometry" />
        </mxCell>
        <mxCell id="upkcNttZu5IaTP0HQgOT-2" value="1.添加助推广告" style="rounded=1;whiteSpace=wrap;html=1;" parent="0-VS3swfHML5EysyRKKE-1" vertex="1">
          <mxGeometry x="592" y="172" width="118" height="72" as="geometry" />
        </mxCell>
        <mxCell id="RdCEnAS_4I0mAr-Uz0lv-14" style="edgeStyle=orthogonalEdgeStyle;rounded=0;orthogonalLoop=1;jettySize=auto;html=1;exitX=0.5;exitY=1;exitDx=0;exitDy=0;" edge="1" parent="0-VS3swfHML5EysyRKKE-1" source="upkcNttZu5IaTP0HQgOT-3" target="RdCEnAS_4I0mAr-Uz0lv-13">
          <mxGeometry relative="1" as="geometry" />
        </mxCell>
        <mxCell id="upkcNttZu5IaTP0HQgOT-3" value="添加合作广告" style="rounded=1;whiteSpace=wrap;html=1;" parent="0-VS3swfHML5EysyRKKE-1" vertex="1">
          <mxGeometry x="834" y="172" width="118" height="72" as="geometry" />
        </mxCell>
        <mxCell id="upkcNttZu5IaTP0HQgOT-11" style="edgeStyle=orthogonalEdgeStyle;rounded=0;orthogonalLoop=1;jettySize=auto;html=1;exitX=0.5;exitY=1;exitDx=0;exitDy=0;" parent="0-VS3swfHML5EysyRKKE-1" source="upkcNttZu5IaTP0HQgOT-8" target="upkcNttZu5IaTP0HQgOT-10" edge="1">
          <mxGeometry relative="1" as="geometry" />
        </mxCell>
        <mxCell id="upkcNttZu5IaTP0HQgOT-8" value="服务器" style="rounded=1;whiteSpace=wrap;html=1;" parent="0-VS3swfHML5EysyRKKE-1" vertex="1">
          <mxGeometry x="365" y="306" width="120" height="60" as="geometry" />
        </mxCell>
        <mxCell id="upkcNttZu5IaTP0HQgOT-10" value="关闭广告模块" style="rounded=1;whiteSpace=wrap;html=1;" parent="0-VS3swfHML5EysyRKKE-1" vertex="1">
          <mxGeometry x="365" y="424" width="120" height="60" as="geometry" />
        </mxCell>
        <mxCell id="upkcNttZu5IaTP0HQgOT-12" value="分发到其他客户端" style="text;html=1;strokeColor=none;fillColor=none;align=center;verticalAlign=middle;whiteSpace=wrap;rounded=0;" parent="0-VS3swfHML5EysyRKKE-1" vertex="1">
          <mxGeometry x="345" y="376" width="60" height="30" as="geometry" />
        </mxCell>
        <mxCell id="upkcNttZu5IaTP0HQgOT-13" value="举报违规广告" style="rounded=1;whiteSpace=wrap;html=1;" parent="0-VS3swfHML5EysyRKKE-1" vertex="1">
          <mxGeometry x="-66" y="172" width="118" height="72" as="geometry" />
        </mxCell>
        <mxCell id="RdCEnAS_4I0mAr-Uz0lv-4" style="edgeStyle=orthogonalEdgeStyle;rounded=0;orthogonalLoop=1;jettySize=auto;html=1;exitX=0.5;exitY=1;exitDx=0;exitDy=0;" edge="1" parent="0-VS3swfHML5EysyRKKE-1" source="RdCEnAS_4I0mAr-Uz0lv-0" target="RdCEnAS_4I0mAr-Uz0lv-2">
          <mxGeometry relative="1" as="geometry" />
        </mxCell>
        <mxCell id="RdCEnAS_4I0mAr-Uz0lv-0" value="2.助推编辑页" style="rounded=1;whiteSpace=wrap;html=1;" vertex="1" parent="0-VS3swfHML5EysyRKKE-1">
          <mxGeometry x="591" y="304" width="120" height="60" as="geometry" />
        </mxCell>
        <mxCell id="RdCEnAS_4I0mAr-Uz0lv-5" style="edgeStyle=orthogonalEdgeStyle;rounded=0;orthogonalLoop=1;jettySize=auto;html=1;exitX=0.5;exitY=1;exitDx=0;exitDy=0;" edge="1" parent="0-VS3swfHML5EysyRKKE-1" source="RdCEnAS_4I0mAr-Uz0lv-2" target="RdCEnAS_4I0mAr-Uz0lv-3">
          <mxGeometry relative="1" as="geometry" />
        </mxCell>
        <mxCell id="RdCEnAS_4I0mAr-Uz0lv-2" value="3.广告编辑页" style="rounded=1;whiteSpace=wrap;html=1;" vertex="1" parent="0-VS3swfHML5EysyRKKE-1">
          <mxGeometry x="707" y="430" width="120" height="60" as="geometry" />
        </mxCell>
        <mxCell id="RdCEnAS_4I0mAr-Uz0lv-12" style="edgeStyle=orthogonalEdgeStyle;rounded=0;orthogonalLoop=1;jettySize=auto;html=1;exitX=0.5;exitY=1;exitDx=0;exitDy=0;" edge="1" parent="0-VS3swfHML5EysyRKKE-1" source="RdCEnAS_4I0mAr-Uz0lv-3" target="RdCEnAS_4I0mAr-Uz0lv-11">
          <mxGeometry relative="1" as="geometry" />
        </mxCell>
        <mxCell id="RdCEnAS_4I0mAr-Uz0lv-3" value="4.服务器" style="rounded=1;whiteSpace=wrap;html=1;" vertex="1" parent="0-VS3swfHML5EysyRKKE-1">
          <mxGeometry x="707" y="560" width="120" height="60" as="geometry" />
        </mxCell>
        <mxCell id="RdCEnAS_4I0mAr-Uz0lv-10" style="edgeStyle=orthogonalEdgeStyle;rounded=0;orthogonalLoop=1;jettySize=auto;html=1;exitX=1;exitY=0.5;exitDx=0;exitDy=0;entryX=0;entryY=0.5;entryDx=0;entryDy=0;" edge="1" parent="0-VS3swfHML5EysyRKKE-1" source="RdCEnAS_4I0mAr-Uz0lv-6" target="RdCEnAS_4I0mAr-Uz0lv-3">
          <mxGeometry relative="1" as="geometry" />
        </mxCell>
        <mxCell id="RdCEnAS_4I0mAr-Uz0lv-6" value="5.人工审核" style="rounded=1;whiteSpace=wrap;html=1;" vertex="1" parent="0-VS3swfHML5EysyRKKE-1">
          <mxGeometry x="515" y="560" width="120" height="60" as="geometry" />
        </mxCell>
        <mxCell id="RdCEnAS_4I0mAr-Uz0lv-11" value="6.客户端" style="rounded=1;whiteSpace=wrap;html=1;" vertex="1" parent="0-VS3swfHML5EysyRKKE-1">
          <mxGeometry x="707" y="691" width="120" height="60" as="geometry" />
        </mxCell>
        <mxCell id="RdCEnAS_4I0mAr-Uz0lv-15" style="edgeStyle=orthogonalEdgeStyle;rounded=0;orthogonalLoop=1;jettySize=auto;html=1;exitX=0.5;exitY=1;exitDx=0;exitDy=0;entryX=0.5;entryY=0;entryDx=0;entryDy=0;" edge="1" parent="0-VS3swfHML5EysyRKKE-1" source="RdCEnAS_4I0mAr-Uz0lv-13" target="RdCEnAS_4I0mAr-Uz0lv-2">
          <mxGeometry relative="1" as="geometry" />
        </mxCell>
        <mxCell id="RdCEnAS_4I0mAr-Uz0lv-13" value="广告合作页" style="rounded=1;whiteSpace=wrap;html=1;" vertex="1" parent="0-VS3swfHML5EysyRKKE-1">
          <mxGeometry x="833" y="304" width="120" height="60" as="geometry" />
        </mxCell>
        <mxCell id="RdCEnAS_4I0mAr-Uz0lv-16" value="审核" style="text;html=1;strokeColor=none;fillColor=none;align=center;verticalAlign=middle;whiteSpace=wrap;rounded=0;" vertex="1" parent="0-VS3swfHML5EysyRKKE-1">
          <mxGeometry x="638" y="595" width="60" height="30" as="geometry" />
        </mxCell>
        <mxCell id="RdCEnAS_4I0mAr-Uz0lv-17" value="审核通过后下发" style="text;html=1;strokeColor=none;fillColor=none;align=center;verticalAlign=middle;whiteSpace=wrap;rounded=0;" vertex="1" parent="0-VS3swfHML5EysyRKKE-1">
          <mxGeometry x="698" y="641" width="60" height="30" as="geometry" />
        </mxCell>
        <mxCell id="RdCEnAS_4I0mAr-Uz0lv-18" value="上传到参数内容" style="text;html=1;strokeColor=none;fillColor=none;align=center;verticalAlign=middle;whiteSpace=wrap;rounded=0;" vertex="1" parent="0-VS3swfHML5EysyRKKE-1">
          <mxGeometry x="681" y="503" width="60" height="30" as="geometry" />
        </mxCell>
        <mxCell id="RdCEnAS_4I0mAr-Uz0lv-19" value="&lt;span style=&quot;color: rgb(0, 0, 0); font-family: helvetica; font-size: 12px; font-style: normal; font-weight: 400; letter-spacing: normal; text-align: center; text-indent: 0px; text-transform: none; word-spacing: 0px; background-color: rgb(255, 255, 255); display: inline; float: none;&quot;&gt;点击出现广告菜单&lt;/span&gt;" style="text;whiteSpace=wrap;html=1;" vertex="1" parent="0-VS3swfHML5EysyRKKE-1">
          <mxGeometry x="384" y="103" width="116" height="28" as="geometry" />
        </mxCell>
      </root>
    </mxGraphModel>
  </diagram>
  <diagram id="HkF-uQDXg5ijP7CxG6Vc" name="Page-8">
    <mxGraphModel dx="1022" dy="1162" grid="0" gridSize="10" guides="1" tooltips="1" connect="1" arrows="1" fold="1" page="0" pageScale="1" pageWidth="1169" pageHeight="827" math="0" shadow="0">
      <root>
        <mxCell id="YnrSFM8cS0EkUlQ-NE48-0" />
        <mxCell id="YnrSFM8cS0EkUlQ-NE48-1" parent="YnrSFM8cS0EkUlQ-NE48-0" />
        <mxCell id="PbAkEPV_mIz45RwD37ON-0" style="edgeStyle=orthogonalEdgeStyle;rounded=0;orthogonalLoop=1;jettySize=auto;html=1;exitX=0.5;exitY=1;exitDx=0;exitDy=0;" edge="1" parent="YnrSFM8cS0EkUlQ-NE48-1" source="PbAkEPV_mIz45RwD37ON-5" target="PbAkEPV_mIz45RwD37ON-6">
          <mxGeometry relative="1" as="geometry" />
        </mxCell>
        <mxCell id="PbAkEPV_mIz45RwD37ON-3" style="edgeStyle=orthogonalEdgeStyle;rounded=0;orthogonalLoop=1;jettySize=auto;html=1;exitX=0.5;exitY=1;exitDx=0;exitDy=0;" edge="1" parent="YnrSFM8cS0EkUlQ-NE48-1" source="PbAkEPV_mIz45RwD37ON-5" target="PbAkEPV_mIz45RwD37ON-12">
          <mxGeometry relative="1" as="geometry" />
        </mxCell>
        <mxCell id="PbAkEPV_mIz45RwD37ON-4" style="edgeStyle=orthogonalEdgeStyle;rounded=0;orthogonalLoop=1;jettySize=auto;html=1;exitX=0.5;exitY=1;exitDx=0;exitDy=0;entryX=0.5;entryY=0;entryDx=0;entryDy=0;" edge="1" parent="YnrSFM8cS0EkUlQ-NE48-1" source="PbAkEPV_mIz45RwD37ON-5" target="PbAkEPV_mIz45RwD37ON-17">
          <mxGeometry relative="1" as="geometry" />
        </mxCell>
        <mxCell id="PbAkEPV_mIz45RwD37ON-5" value="用户端" style="rounded=1;whiteSpace=wrap;html=1;" vertex="1" parent="YnrSFM8cS0EkUlQ-NE48-1">
          <mxGeometry x="700" y="-34" width="180" height="83" as="geometry" />
        </mxCell>
        <mxCell id="PbAkEPV_mIz45RwD37ON-6" value="关闭自身广告" style="rounded=1;whiteSpace=wrap;html=1;" vertex="1" parent="YnrSFM8cS0EkUlQ-NE48-1">
          <mxGeometry x="731" y="123" width="118" height="72" as="geometry" />
        </mxCell>
        <mxCell id="PbAkEPV_mIz45RwD37ON-11" style="edgeStyle=orthogonalEdgeStyle;rounded=0;orthogonalLoop=1;jettySize=auto;html=1;exitX=0.5;exitY=1;exitDx=0;exitDy=0;" edge="1" parent="YnrSFM8cS0EkUlQ-NE48-1" source="PbAkEPV_mIz45RwD37ON-12" target="PbAkEPV_mIz45RwD37ON-28">
          <mxGeometry relative="1" as="geometry" />
        </mxCell>
        <mxCell id="PbAkEPV_mIz45RwD37ON-12" value="添加合作广告" style="rounded=1;whiteSpace=wrap;html=1;" vertex="1" parent="YnrSFM8cS0EkUlQ-NE48-1">
          <mxGeometry x="953" y="123" width="118" height="72" as="geometry" />
        </mxCell>
        <mxCell id="PbAkEPV_mIz45RwD37ON-17" value="举报违规广告" style="rounded=1;whiteSpace=wrap;html=1;" vertex="1" parent="YnrSFM8cS0EkUlQ-NE48-1">
          <mxGeometry x="503" y="123" width="118" height="72" as="geometry" />
        </mxCell>
        <mxCell id="PbAkEPV_mIz45RwD37ON-20" style="edgeStyle=orthogonalEdgeStyle;rounded=0;orthogonalLoop=1;jettySize=auto;html=1;exitX=0.5;exitY=1;exitDx=0;exitDy=0;" edge="1" parent="YnrSFM8cS0EkUlQ-NE48-1" source="PbAkEPV_mIz45RwD37ON-21" target="PbAkEPV_mIz45RwD37ON-23">
          <mxGeometry relative="1" as="geometry" />
        </mxCell>
        <mxCell id="PbAkEPV_mIz45RwD37ON-21" value="3.广告编辑页" style="rounded=1;whiteSpace=wrap;html=1;" vertex="1" parent="YnrSFM8cS0EkUlQ-NE48-1">
          <mxGeometry x="952" y="381" width="120" height="60" as="geometry" />
        </mxCell>
        <mxCell id="PbAkEPV_mIz45RwD37ON-22" style="edgeStyle=orthogonalEdgeStyle;rounded=0;orthogonalLoop=1;jettySize=auto;html=1;exitX=0.5;exitY=1;exitDx=0;exitDy=0;" edge="1" parent="YnrSFM8cS0EkUlQ-NE48-1" source="PbAkEPV_mIz45RwD37ON-23" target="PbAkEPV_mIz45RwD37ON-26">
          <mxGeometry relative="1" as="geometry" />
        </mxCell>
        <mxCell id="PbAkEPV_mIz45RwD37ON-23" value="4.服务器" style="rounded=1;whiteSpace=wrap;html=1;" vertex="1" parent="YnrSFM8cS0EkUlQ-NE48-1">
          <mxGeometry x="952" y="511" width="120" height="60" as="geometry" />
        </mxCell>
        <mxCell id="PbAkEPV_mIz45RwD37ON-24" style="edgeStyle=orthogonalEdgeStyle;rounded=0;orthogonalLoop=1;jettySize=auto;html=1;exitX=1;exitY=0.5;exitDx=0;exitDy=0;entryX=0;entryY=0.5;entryDx=0;entryDy=0;" edge="1" parent="YnrSFM8cS0EkUlQ-NE48-1" source="PbAkEPV_mIz45RwD37ON-25" target="PbAkEPV_mIz45RwD37ON-23">
          <mxGeometry relative="1" as="geometry" />
        </mxCell>
        <mxCell id="PbAkEPV_mIz45RwD37ON-25" value="5.人工审核" style="rounded=1;whiteSpace=wrap;html=1;" vertex="1" parent="YnrSFM8cS0EkUlQ-NE48-1">
          <mxGeometry x="760" y="511" width="120" height="60" as="geometry" />
        </mxCell>
        <mxCell id="PbAkEPV_mIz45RwD37ON-26" value="6.客户端" style="rounded=1;whiteSpace=wrap;html=1;" vertex="1" parent="YnrSFM8cS0EkUlQ-NE48-1">
          <mxGeometry x="952" y="642" width="120" height="60" as="geometry" />
        </mxCell>
        <mxCell id="PbAkEPV_mIz45RwD37ON-27" style="edgeStyle=orthogonalEdgeStyle;rounded=0;orthogonalLoop=1;jettySize=auto;html=1;exitX=0.5;exitY=1;exitDx=0;exitDy=0;entryX=0.5;entryY=0;entryDx=0;entryDy=0;" edge="1" parent="YnrSFM8cS0EkUlQ-NE48-1" source="PbAkEPV_mIz45RwD37ON-28" target="PbAkEPV_mIz45RwD37ON-21">
          <mxGeometry relative="1" as="geometry" />
        </mxCell>
        <mxCell id="PbAkEPV_mIz45RwD37ON-28" value="广告合作页" style="rounded=1;whiteSpace=wrap;html=1;" vertex="1" parent="YnrSFM8cS0EkUlQ-NE48-1">
          <mxGeometry x="952" y="255" width="120" height="60" as="geometry" />
        </mxCell>
        <mxCell id="PbAkEPV_mIz45RwD37ON-29" value="审核" style="text;html=1;strokeColor=none;fillColor=none;align=center;verticalAlign=middle;whiteSpace=wrap;rounded=0;" vertex="1" parent="YnrSFM8cS0EkUlQ-NE48-1">
          <mxGeometry x="883" y="546" width="60" height="30" as="geometry" />
        </mxCell>
        <mxCell id="PbAkEPV_mIz45RwD37ON-30" value="审核通过后下发" style="text;html=1;strokeColor=none;fillColor=none;align=center;verticalAlign=middle;whiteSpace=wrap;rounded=0;" vertex="1" parent="YnrSFM8cS0EkUlQ-NE48-1">
          <mxGeometry x="943" y="592" width="60" height="30" as="geometry" />
        </mxCell>
        <mxCell id="PbAkEPV_mIz45RwD37ON-31" value="上传到参数内容" style="text;html=1;strokeColor=none;fillColor=none;align=center;verticalAlign=middle;whiteSpace=wrap;rounded=0;" vertex="1" parent="YnrSFM8cS0EkUlQ-NE48-1">
          <mxGeometry x="926" y="454" width="60" height="30" as="geometry" />
        </mxCell>
        <mxCell id="PbAkEPV_mIz45RwD37ON-32" value="&lt;span style=&quot;color: rgb(0, 0, 0); font-family: helvetica; font-size: 12px; font-style: normal; font-weight: 400; letter-spacing: normal; text-align: center; text-indent: 0px; text-transform: none; word-spacing: 0px; background-color: rgb(255, 255, 255); display: inline; float: none;&quot;&gt;点击出现广告菜单&lt;/span&gt;" style="text;whiteSpace=wrap;html=1;" vertex="1" parent="YnrSFM8cS0EkUlQ-NE48-1">
          <mxGeometry x="629" y="54" width="116" height="28" as="geometry" />
        </mxCell>
      </root>
    </mxGraphModel>
  </diagram>
  <diagram id="NB_jXBU790ncTG5SjaUk" name="Page-9">
    <mxGraphModel dx="1422" dy="762" grid="0" gridSize="10" guides="1" tooltips="1" connect="1" arrows="1" fold="1" page="0" pageScale="1" pageWidth="1169" pageHeight="827" math="0" shadow="0">
      <root>
        <mxCell id="g6QqU0gWlU1qVDzJ_eEp-0" />
        <mxCell id="g6QqU0gWlU1qVDzJ_eEp-1" parent="g6QqU0gWlU1qVDzJ_eEp-0" />
      </root>
    </mxGraphModel>
  </diagram>
</mxfile>
